<?xml version="1.0" encoding="utf-8" standalone="no"?>
<!DOCTYPE svg PUBLIC "-//W3C//DTD SVG 1.1//EN"
  "http://www.w3.org/Graphics/SVG/1.1/DTD/svg11.dtd">
<svg xmlns:xlink="http://www.w3.org/1999/xlink" width="504pt" height="414pt" viewBox="0 0 504 414" xmlns="http://www.w3.org/2000/svg" version="1.1">
 <metadata>
  <rdf:RDF xmlns:dc="http://purl.org/dc/elements/1.1/" xmlns:cc="http://creativecommons.org/ns#" xmlns:rdf="http://www.w3.org/1999/02/22-rdf-syntax-ns#">
   <cc:Work>
    <dc:type rdf:resource="http://purl.org/dc/dcmitype/StillImage"/>
    <dc:date>2022-06-21T18:09:53.521190</dc:date>
    <dc:format>image/svg+xml</dc:format>
    <dc:creator>
     <cc:Agent>
      <dc:title>Matplotlib v3.5.1, https://matplotlib.org/</dc:title>
     </cc:Agent>
    </dc:creator>
   </cc:Work>
  </rdf:RDF>
 </metadata>
 <defs>
  <style type="text/css">*{stroke-linejoin: round; stroke-linecap: butt}</style>
 </defs>
 <g id="figure_1">
  <g id="patch_1">
   <path d="M 0 414 
L 504 414 
L 504 0 
L 0 0 
z
" style="fill: #ffffff"/>
  </g>
  <g id="axes_1">
   <g id="patch_2">
    <path d="M 46.724375 359.92 
L 493.2 359.92 
L 493.2 61.6 
L 46.724375 61.6 
z
" style="fill: #ffffff"/>
   </g>
   <g id="matplotlib.axis_1">
    <g id="xtick_1">
     <g id="text_1">
      <!-- 2018 -->
      <g style="fill: #333333" transform="translate(90.665513 374.285625)scale(0.1 -0.1)">
       <defs>
        <path id="Lato-Regular-32" d="M 1923 4637 
Q 2214 4637 2467 4550 
Q 2720 4464 2904 4299 
Q 3088 4134 3193 3897 
Q 3299 3661 3299 3360 
Q 3299 3104 3222 2886 
Q 3146 2669 3014 2469 
Q 2883 2269 2712 2081 
Q 2541 1894 2349 1699 
L 1142 464 
Q 1270 499 1401 520 
Q 1533 541 1654 541 
L 3190 541 
Q 3283 541 3337 486 
Q 3392 432 3392 346 
L 3392 0 
L 333 0 
L 333 195 
Q 333 256 357 320 
Q 381 384 435 438 
L 1904 1914 
Q 2086 2099 2236 2270 
Q 2387 2442 2494 2614 
Q 2602 2787 2659 2964 
Q 2717 3142 2717 3344 
Q 2717 3546 2653 3698 
Q 2589 3850 2477 3949 
Q 2365 4048 2214 4097 
Q 2064 4147 1891 4147 
Q 1718 4147 1571 4096 
Q 1424 4045 1310 3953 
Q 1197 3862 1118 3737 
Q 1040 3613 1008 3462 
Q 982 3370 931 3328 
Q 880 3286 797 3286 
Q 781 3286 763 3288 
Q 746 3290 723 3293 
L 426 3344 
Q 470 3658 598 3899 
Q 726 4141 923 4304 
Q 1120 4467 1374 4552 
Q 1629 4637 1923 4637 
z
" transform="scale(0.015625)"/>
        <path id="Lato-Regular-30" d="M 3520 2291 
Q 3520 1690 3390 1250 
Q 3261 810 3037 522 
Q 2813 234 2507 93 
Q 2202 -48 1853 -48 
Q 1501 -48 1198 93 
Q 896 234 672 522 
Q 448 810 320 1250 
Q 192 1690 192 2291 
Q 192 2893 320 3334 
Q 448 3776 672 4065 
Q 896 4355 1198 4496 
Q 1501 4637 1853 4637 
Q 2202 4637 2507 4496 
Q 2813 4355 3037 4065 
Q 3261 3776 3390 3334 
Q 3520 2893 3520 2291 
z
M 2928 2291 
Q 2928 2816 2840 3173 
Q 2752 3530 2603 3747 
Q 2454 3965 2259 4059 
Q 2064 4154 1853 4154 
Q 1642 4154 1446 4059 
Q 1251 3965 1104 3747 
Q 957 3530 869 3173 
Q 781 2816 781 2291 
Q 781 1766 869 1411 
Q 957 1056 1104 838 
Q 1251 621 1446 526 
Q 1642 432 1853 432 
Q 2064 432 2259 526 
Q 2454 621 2603 838 
Q 2752 1056 2840 1411 
Q 2928 1766 2928 2291 
z
" transform="scale(0.015625)"/>
        <path id="Lato-Regular-31" d="M 918 435 
L 1904 435 
L 1904 3562 
Q 1904 3702 1914 3846 
L 1094 3146 
Q 1062 3120 1030 3109 
Q 998 3098 970 3098 
Q 922 3098 883 3118 
Q 845 3139 826 3168 
L 646 3414 
L 2010 4595 
L 2474 4595 
L 2474 435 
L 3376 435 
L 3376 0 
L 918 0 
L 918 435 
z
" transform="scale(0.015625)"/>
        <path id="Lato-Regular-38" d="M 1853 -51 
Q 1510 -51 1225 40 
Q 941 131 736 300 
Q 531 470 419 712 
Q 307 954 307 1254 
Q 307 1696 537 1982 
Q 768 2269 1197 2390 
Q 835 2525 651 2792 
Q 467 3059 467 3430 
Q 467 3683 566 3904 
Q 666 4125 848 4288 
Q 1030 4451 1284 4544 
Q 1539 4637 1853 4637 
Q 2163 4637 2419 4544 
Q 2675 4451 2857 4288 
Q 3040 4125 3139 3904 
Q 3238 3683 3238 3430 
Q 3238 3059 3052 2792 
Q 2867 2525 2509 2390 
Q 2938 2269 3168 1982 
Q 3398 1696 3398 1254 
Q 3398 954 3284 712 
Q 3171 470 2968 300 
Q 2765 131 2480 40 
Q 2195 -51 1853 -51 
z
M 1853 403 
Q 2077 403 2254 465 
Q 2432 528 2555 641 
Q 2678 755 2744 913 
Q 2810 1072 2810 1264 
Q 2810 1501 2731 1669 
Q 2653 1837 2520 1942 
Q 2387 2048 2214 2097 
Q 2042 2147 1853 2147 
Q 1664 2147 1491 2097 
Q 1318 2048 1185 1942 
Q 1053 1837 974 1669 
Q 896 1501 896 1264 
Q 896 1072 961 913 
Q 1027 755 1150 641 
Q 1274 528 1451 465 
Q 1629 403 1853 403 
z
M 1853 2605 
Q 2077 2605 2235 2673 
Q 2394 2742 2493 2856 
Q 2592 2970 2637 3117 
Q 2682 3264 2682 3421 
Q 2682 3581 2629 3721 
Q 2576 3862 2472 3968 
Q 2368 4074 2213 4134 
Q 2058 4195 1853 4195 
Q 1648 4195 1493 4134 
Q 1338 4074 1234 3968 
Q 1130 3862 1077 3721 
Q 1024 3581 1024 3421 
Q 1024 3264 1069 3117 
Q 1114 2970 1213 2856 
Q 1312 2742 1470 2673 
Q 1629 2605 1853 2605 
z
" transform="scale(0.015625)"/>
       </defs>
       <use xlink:href="#Lato-Regular-32"/>
       <use xlink:href="#Lato-Regular-30" x="58"/>
       <use xlink:href="#Lato-Regular-31" x="116"/>
       <use xlink:href="#Lato-Regular-38" x="174"/>
      </g>
     </g>
    </g>
    <g id="xtick_2">
     <g id="text_2">
      <!-- 2019 -->
      <g style="fill: #333333" transform="translate(202.463296 374.285625)scale(0.1 -0.1)">
       <defs>
        <path id="Lato-Regular-39" d="M 1757 1882 
Q 1498 1882 1266 1968 
Q 1034 2054 858 2222 
Q 682 2390 578 2635 
Q 474 2880 474 3197 
Q 474 3498 586 3760 
Q 698 4022 899 4217 
Q 1101 4413 1379 4525 
Q 1658 4637 1990 4637 
Q 2320 4637 2589 4528 
Q 2858 4419 3050 4224 
Q 3242 4029 3346 3757 
Q 3450 3485 3450 3155 
Q 3450 2957 3413 2779 
Q 3376 2602 3305 2432 
Q 3235 2262 3137 2094 
Q 3040 1926 2915 1747 
L 1798 134 
Q 1757 74 1680 37 
Q 1603 0 1504 0 
L 979 0 
L 2374 1827 
Q 2445 1920 2505 2003 
Q 2566 2086 2621 2170 
Q 2445 2029 2224 1955 
Q 2003 1882 1757 1882 
z
M 2902 3222 
Q 2902 3437 2833 3611 
Q 2765 3786 2643 3907 
Q 2522 4029 2354 4094 
Q 2186 4160 1984 4160 
Q 1773 4160 1598 4091 
Q 1424 4022 1301 3900 
Q 1178 3779 1110 3609 
Q 1043 3440 1043 3238 
Q 1043 3021 1105 2849 
Q 1168 2678 1285 2560 
Q 1402 2442 1570 2381 
Q 1738 2320 1946 2320 
Q 2176 2320 2353 2395 
Q 2531 2470 2652 2595 
Q 2774 2720 2838 2883 
Q 2902 3046 2902 3222 
z
" transform="scale(0.015625)"/>
       </defs>
       <use xlink:href="#Lato-Regular-32"/>
       <use xlink:href="#Lato-Regular-30" x="58"/>
       <use xlink:href="#Lato-Regular-31" x="116"/>
       <use xlink:href="#Lato-Regular-39" x="174"/>
      </g>
     </g>
    </g>
    <g id="xtick_3">
     <g id="text_3">
      <!-- 2020 -->
      <g style="fill: #333333" transform="translate(314.261079 374.285625)scale(0.1 -0.1)">
       <use xlink:href="#Lato-Regular-32"/>
       <use xlink:href="#Lato-Regular-30" x="58"/>
       <use xlink:href="#Lato-Regular-32" x="116"/>
       <use xlink:href="#Lato-Regular-30" x="174"/>
      </g>
     </g>
    </g>
    <g id="xtick_4">
     <g id="text_4">
      <!-- 2021 -->
      <g style="fill: #333333" transform="translate(426.058862 374.285625)scale(0.1 -0.1)">
       <use xlink:href="#Lato-Regular-32"/>
       <use xlink:href="#Lato-Regular-30" x="58"/>
       <use xlink:href="#Lato-Regular-32" x="116"/>
       <use xlink:href="#Lato-Regular-31" x="174"/>
      </g>
     </g>
    </g>
   </g>
   <g id="matplotlib.axis_2">
    <g id="ytick_1">
     <g id="line2d_1">
      <path d="M 46.724375 359.92 
L 493.2 359.92 
" clip-path="url(#pd13878a474)" style="fill: none; stroke: #000000; stroke-opacity: 0.3; stroke-width: 0.5; stroke-linecap: square"/>
     </g>
     <g id="text_5">
      <!-- 0 -->
      <g style="fill: #333333" transform="translate(33.924375 363.602812)scale(0.1 -0.1)">
       <use xlink:href="#Lato-Regular-30"/>
      </g>
     </g>
    </g>
    <g id="ytick_2">
     <g id="line2d_2">
      <path d="M 46.724375 307.885203 
L 493.2 307.885203 
" clip-path="url(#pd13878a474)" style="fill: none; stroke: #000000; stroke-opacity: 0.3; stroke-width: 0.5; stroke-linecap: square"/>
     </g>
     <g id="text_6">
      <!-- 1M -->
      <g style="fill: #333333" transform="translate(24.724375 311.568016)scale(0.1 -0.1)">
       <defs>
        <path id="Lato-Regular-4d" d="M 2813 1658 
Q 2858 1581 2891 1496 
Q 2925 1411 2957 1325 
Q 2989 1414 3024 1496 
Q 3059 1578 3104 1661 
L 4656 4480 
Q 4698 4554 4742 4570 
Q 4787 4586 4870 4586 
L 5328 4586 
L 5328 0 
L 4784 0 
L 4784 3370 
Q 4784 3437 4787 3513 
Q 4790 3590 4797 3670 
L 3226 803 
Q 3146 659 3002 659 
L 2912 659 
Q 2768 659 2688 803 
L 1082 3680 
Q 1091 3597 1096 3517 
Q 1101 3437 1101 3370 
L 1101 0 
L 557 0 
L 557 4586 
L 1014 4586 
Q 1098 4586 1142 4570 
Q 1187 4554 1229 4480 
L 2813 1658 
L 2813 1658 
z
" transform="scale(0.015625)"/>
       </defs>
       <use xlink:href="#Lato-Regular-31"/>
       <use xlink:href="#Lato-Regular-4d" x="58"/>
      </g>
     </g>
    </g>
    <g id="ytick_3">
     <g id="line2d_3">
      <path d="M 46.724375 255.850407 
L 493.2 255.850407 
" clip-path="url(#pd13878a474)" style="fill: none; stroke: #000000; stroke-opacity: 0.3; stroke-width: 0.5; stroke-linecap: square"/>
     </g>
     <g id="text_7">
      <!-- 2M -->
      <g style="fill: #333333" transform="translate(24.724375 259.533219)scale(0.1 -0.1)">
       <use xlink:href="#Lato-Regular-32"/>
       <use xlink:href="#Lato-Regular-4d" x="58"/>
      </g>
     </g>
    </g>
    <g id="ytick_4">
     <g id="line2d_4">
      <path d="M 46.724375 203.81561 
L 493.2 203.81561 
" clip-path="url(#pd13878a474)" style="fill: none; stroke: #000000; stroke-opacity: 0.3; stroke-width: 0.5; stroke-linecap: square"/>
     </g>
     <g id="text_8">
      <!-- 3M -->
      <g style="fill: #333333" transform="translate(24.724375 207.498423)scale(0.1 -0.1)">
       <defs>
        <path id="Lato-Regular-33" d="M 1984 4637 
Q 2275 4637 2521 4553 
Q 2768 4470 2945 4316 
Q 3123 4163 3222 3945 
Q 3322 3728 3322 3462 
Q 3322 3245 3266 3073 
Q 3210 2902 3106 2772 
Q 3002 2643 2854 2553 
Q 2707 2464 2525 2410 
Q 2973 2291 3198 2012 
Q 3424 1734 3424 1315 
Q 3424 998 3304 745 
Q 3184 493 2976 315 
Q 2768 138 2491 43 
Q 2214 -51 1898 -51 
Q 1533 -51 1273 40 
Q 1014 131 835 291 
Q 656 451 541 670 
Q 426 890 346 1146 
L 589 1248 
Q 656 1277 723 1277 
Q 787 1277 836 1249 
Q 886 1222 912 1165 
Q 918 1152 924 1137 
Q 931 1123 938 1107 
Q 982 1014 1046 897 
Q 1110 781 1219 678 
Q 1328 576 1489 505 
Q 1651 435 1891 435 
Q 2131 435 2312 513 
Q 2493 592 2613 717 
Q 2733 842 2793 995 
Q 2854 1149 2854 1299 
Q 2854 1485 2804 1638 
Q 2755 1792 2625 1904 
Q 2496 2016 2267 2080 
Q 2038 2144 1680 2144 
L 1680 2557 
Q 1971 2560 2177 2621 
Q 2384 2682 2515 2787 
Q 2646 2893 2705 3040 
Q 2765 3187 2765 3366 
Q 2765 3565 2702 3712 
Q 2640 3859 2531 3955 
Q 2422 4051 2273 4099 
Q 2125 4147 1952 4147 
Q 1779 4147 1632 4096 
Q 1485 4045 1371 3953 
Q 1258 3862 1181 3736 
Q 1104 3610 1066 3462 
Q 1040 3370 989 3328 
Q 938 3286 858 3286 
Q 842 3286 824 3288 
Q 806 3290 784 3293 
L 486 3344 
Q 531 3658 659 3899 
Q 787 4141 984 4304 
Q 1181 4467 1435 4552 
Q 1690 4637 1984 4637 
z
" transform="scale(0.015625)"/>
       </defs>
       <use xlink:href="#Lato-Regular-33"/>
       <use xlink:href="#Lato-Regular-4d" x="58"/>
      </g>
     </g>
    </g>
    <g id="ytick_5">
     <g id="line2d_5">
      <path d="M 46.724375 151.780814 
L 493.2 151.780814 
" clip-path="url(#pd13878a474)" style="fill: none; stroke: #000000; stroke-opacity: 0.3; stroke-width: 0.5; stroke-linecap: square"/>
     </g>
     <g id="text_9">
      <!-- 4M -->
      <g style="fill: #333333" transform="translate(24.724375 155.463626)scale(0.1 -0.1)">
       <defs>
        <path id="Lato-Regular-34" d="M 2890 1654 
L 3584 1654 
L 3584 1328 
Q 3584 1277 3553 1241 
Q 3523 1206 3459 1206 
L 2890 1206 
L 2890 0 
L 2387 0 
L 2387 1206 
L 355 1206 
Q 291 1206 244 1243 
Q 198 1280 186 1334 
L 128 1626 
L 2358 4586 
L 2890 4586 
L 2890 1654 
z
M 2387 3546 
Q 2387 3629 2392 3725 
Q 2397 3821 2413 3923 
L 746 1654 
L 2387 1654 
L 2387 3546 
z
" transform="scale(0.015625)"/>
       </defs>
       <use xlink:href="#Lato-Regular-34"/>
       <use xlink:href="#Lato-Regular-4d" x="58"/>
      </g>
     </g>
    </g>
    <g id="ytick_6">
     <g id="line2d_6">
      <path d="M 46.724375 99.746017 
L 493.2 99.746017 
" clip-path="url(#pd13878a474)" style="fill: none; stroke: #000000; stroke-opacity: 0.3; stroke-width: 0.5; stroke-linecap: square"/>
     </g>
     <g id="text_10">
      <!-- 5M -->
      <g style="fill: #333333" transform="translate(24.724375 103.42883)scale(0.1 -0.1)">
       <defs>
        <path id="Lato-Regular-35" d="M 3130 4336 
Q 3130 4214 3053 4136 
Q 2976 4058 2794 4058 
L 1354 4058 
L 1142 2854 
Q 1501 2931 1805 2931 
Q 2163 2931 2436 2825 
Q 2710 2720 2896 2534 
Q 3082 2349 3176 2096 
Q 3270 1843 3270 1546 
Q 3270 1181 3142 886 
Q 3014 592 2792 382 
Q 2570 173 2269 61 
Q 1968 -51 1619 -51 
Q 1418 -51 1232 -11 
Q 1046 29 886 96 
Q 726 163 588 249 
Q 451 336 346 432 
L 518 675 
Q 576 758 672 758 
Q 733 758 814 708 
Q 896 659 1011 598 
Q 1126 538 1281 488 
Q 1437 438 1651 438 
Q 1891 438 2083 515 
Q 2275 592 2411 734 
Q 2547 877 2620 1075 
Q 2694 1274 2694 1520 
Q 2694 1734 2632 1907 
Q 2570 2080 2443 2201 
Q 2317 2323 2128 2390 
Q 1939 2458 1686 2458 
Q 1514 2458 1328 2429 
Q 1142 2400 944 2336 
L 586 2442 
L 957 4586 
L 3130 4586 
L 3130 4336 
z
" transform="scale(0.015625)"/>
       </defs>
       <use xlink:href="#Lato-Regular-35"/>
       <use xlink:href="#Lato-Regular-4d" x="58"/>
      </g>
     </g>
    </g>
    <g id="text_11">
     <!-- Number of people (millions) -->
     <g style="fill: #666666" transform="translate(19.00875 270.987344)rotate(-90)scale(0.1 -0.1)">
      <defs>
       <path id="Lato-Regular-4e" d="M 877 4586 
Q 960 4586 1000 4565 
Q 1040 4544 1091 4480 
L 3747 1024 
Q 3738 1107 3734 1185 
Q 3731 1264 3731 1338 
L 3731 4586 
L 4275 4586 
L 4275 0 
L 3962 0 
Q 3888 0 3838 25 
Q 3789 51 3741 112 
L 1088 3565 
Q 1094 3485 1097 3408 
Q 1101 3331 1101 3267 
L 1101 0 
L 557 0 
L 557 4586 
L 877 4586 
L 877 4586 
z
" transform="scale(0.015625)"/>
       <path id="Lato-Regular-75" d="M 960 3242 
L 960 1174 
Q 960 806 1129 604 
Q 1299 403 1642 403 
Q 1891 403 2112 521 
Q 2333 640 2518 851 
L 2518 3242 
L 3088 3242 
L 3088 0 
L 2749 0 
Q 2627 0 2595 118 
L 2550 467 
Q 2339 234 2076 91 
Q 1814 -51 1475 -51 
Q 1210 -51 1006 37 
Q 803 125 665 285 
Q 528 445 459 672 
Q 390 899 390 1174 
L 390 3242 
L 960 3242 
z
" transform="scale(0.015625)"/>
       <path id="Lato-Regular-6d" d="M 467 0 
L 467 3242 
L 806 3242 
Q 928 3242 960 3123 
L 1002 2790 
Q 1181 3011 1403 3152 
Q 1626 3293 1920 3293 
Q 2250 3293 2453 3110 
Q 2656 2928 2746 2618 
Q 2813 2794 2923 2922 
Q 3034 3050 3171 3133 
Q 3309 3216 3464 3254 
Q 3619 3293 3779 3293 
Q 4035 3293 4235 3211 
Q 4435 3130 4574 2973 
Q 4714 2816 4787 2587 
Q 4861 2358 4861 2064 
L 4861 0 
L 4291 0 
L 4291 2064 
Q 4291 2445 4124 2641 
Q 3958 2838 3642 2838 
Q 3501 2838 3374 2788 
Q 3248 2739 3152 2643 
Q 3056 2547 3000 2401 
Q 2944 2256 2944 2064 
L 2944 0 
L 2374 0 
L 2374 2064 
Q 2374 2454 2217 2646 
Q 2061 2838 1760 2838 
Q 1549 2838 1368 2724 
Q 1187 2611 1037 2416 
L 1037 0 
L 467 0 
z
" transform="scale(0.015625)"/>
       <path id="Lato-Regular-62" d="M 486 0 
L 486 4714 
L 1059 4714 
L 1059 2774 
Q 1261 3008 1521 3150 
Q 1782 3293 2118 3293 
Q 2400 3293 2627 3187 
Q 2854 3082 3014 2872 
Q 3174 2662 3260 2353 
Q 3347 2045 3347 1642 
Q 3347 1283 3251 974 
Q 3155 666 2974 440 
Q 2794 214 2533 84 
Q 2272 -45 1946 -45 
Q 1632 -45 1413 76 
Q 1194 198 1030 416 
L 1002 122 
Q 976 0 854 0 
L 486 0 
z
M 1933 2838 
Q 1654 2838 1444 2710 
Q 1235 2582 1059 2349 
L 1059 781 
Q 1213 570 1400 483 
Q 1587 397 1818 397 
Q 2272 397 2515 720 
Q 2758 1043 2758 1642 
Q 2758 1958 2702 2185 
Q 2646 2413 2540 2558 
Q 2435 2704 2281 2771 
Q 2128 2838 1933 2838 
z
" transform="scale(0.015625)"/>
       <path id="Lato-Regular-65" d="M 1750 3293 
Q 2042 3293 2288 3195 
Q 2534 3098 2713 2914 
Q 2893 2730 2993 2459 
Q 3094 2189 3094 1843 
Q 3094 1709 3065 1664 
Q 3037 1619 2957 1619 
L 800 1619 
Q 806 1312 883 1085 
Q 960 858 1094 706 
Q 1229 554 1414 478 
Q 1600 403 1830 403 
Q 2045 403 2200 452 
Q 2355 502 2467 560 
Q 2579 618 2654 667 
Q 2730 717 2784 717 
Q 2854 717 2893 662 
L 3053 454 
Q 2947 326 2800 232 
Q 2653 138 2485 77 
Q 2317 16 2137 -14 
Q 1958 -45 1782 -45 
Q 1446 -45 1163 68 
Q 880 182 673 401 
Q 467 621 352 944 
Q 237 1267 237 1686 
Q 237 2026 341 2320 
Q 445 2614 640 2830 
Q 835 3046 1116 3169 
Q 1398 3293 1750 3293 
z
M 1763 2874 
Q 1350 2874 1113 2635 
Q 877 2397 819 1974 
L 2582 1974 
Q 2582 2173 2528 2337 
Q 2474 2502 2368 2622 
Q 2262 2742 2110 2808 
Q 1958 2874 1763 2874 
z
" transform="scale(0.015625)"/>
       <path id="Lato-Regular-72" d="M 467 0 
L 467 3242 
L 794 3242 
Q 886 3242 921 3206 
Q 957 3171 970 3085 
L 1008 2579 
Q 1174 2918 1419 3108 
Q 1664 3299 1994 3299 
Q 2128 3299 2237 3268 
Q 2346 3238 2438 3184 
L 2365 2758 
Q 2342 2678 2266 2678 
Q 2221 2678 2128 2708 
Q 2035 2739 1869 2739 
Q 1571 2739 1371 2566 
Q 1171 2394 1037 2064 
L 1037 0 
L 467 0 
z
" transform="scale(0.015625)"/>
       <path id="Lato-Regular-20" transform="scale(0.015625)"/>
       <path id="Lato-Regular-6f" d="M 1779 3293 
Q 2134 3293 2420 3174 
Q 2707 3056 2907 2838 
Q 3107 2621 3214 2312 
Q 3322 2003 3322 1622 
Q 3322 1238 3214 931 
Q 3107 624 2907 406 
Q 2707 189 2420 72 
Q 2134 -45 1779 -45 
Q 1424 -45 1137 72 
Q 851 189 649 406 
Q 448 624 339 931 
Q 230 1238 230 1622 
Q 230 2003 339 2312 
Q 448 2621 649 2838 
Q 851 3056 1137 3174 
Q 1424 3293 1779 3293 
z
M 1779 400 
Q 2259 400 2496 721 
Q 2733 1043 2733 1619 
Q 2733 2198 2496 2521 
Q 2259 2845 1779 2845 
Q 1536 2845 1357 2761 
Q 1178 2678 1058 2521 
Q 938 2365 878 2136 
Q 819 1907 819 1619 
Q 819 1331 878 1104 
Q 938 877 1058 721 
Q 1178 566 1357 483 
Q 1536 400 1779 400 
z
" transform="scale(0.015625)"/>
       <path id="Lato-Regular-66" d="M 595 0 
L 595 2755 
L 237 2797 
Q 170 2813 126 2846 
Q 83 2880 83 2944 
L 83 3178 
L 595 3178 
L 595 3491 
Q 595 3770 673 3986 
Q 752 4202 897 4350 
Q 1043 4499 1248 4576 
Q 1453 4653 1709 4653 
Q 1926 4653 2112 4589 
L 2099 4304 
Q 2096 4240 2045 4227 
Q 1994 4214 1901 4214 
L 1802 4214 
Q 1654 4214 1534 4176 
Q 1414 4138 1328 4051 
Q 1242 3965 1195 3824 
Q 1149 3683 1149 3475 
L 1149 3178 
L 2086 3178 
L 2086 2765 
L 1168 2765 
L 1168 0 
L 595 0 
z
" transform="scale(0.015625)"/>
       <path id="Lato-Regular-70" d="M 467 -1098 
L 467 3242 
L 806 3242 
Q 928 3242 960 3123 
L 1008 2739 
Q 1216 2992 1483 3145 
Q 1750 3299 2099 3299 
Q 2378 3299 2605 3192 
Q 2832 3085 2992 2875 
Q 3152 2666 3238 2355 
Q 3325 2045 3325 1642 
Q 3325 1283 3229 974 
Q 3133 666 2953 440 
Q 2774 214 2513 84 
Q 2253 -45 1926 -45 
Q 1626 -45 1413 54 
Q 1200 154 1037 336 
L 1037 -1098 
L 467 -1098 
z
M 1910 2838 
Q 1632 2838 1422 2710 
Q 1213 2582 1037 2349 
L 1037 781 
Q 1194 570 1381 483 
Q 1568 397 1798 397 
Q 2250 397 2493 720 
Q 2736 1043 2736 1642 
Q 2736 1958 2680 2185 
Q 2624 2413 2518 2558 
Q 2413 2704 2259 2771 
Q 2106 2838 1910 2838 
z
" transform="scale(0.015625)"/>
       <path id="Lato-Regular-6c" d="M 1101 4714 
L 1101 0 
L 531 0 
L 531 4714 
L 1101 4714 
z
" transform="scale(0.015625)"/>
       <path id="Lato-Regular-28" d="M 925 2013 
Q 925 1328 1101 683 
Q 1277 38 1610 -547 
Q 1629 -582 1635 -608 
Q 1642 -634 1642 -659 
Q 1642 -704 1619 -733 
Q 1597 -762 1562 -784 
L 1309 -938 
Q 1069 -570 901 -208 
Q 733 154 629 518 
Q 525 883 477 1252 
Q 429 1622 429 2013 
Q 429 2400 477 2771 
Q 525 3142 629 3505 
Q 733 3869 901 4230 
Q 1069 4592 1309 4963 
L 1562 4806 
Q 1597 4784 1619 4755 
Q 1642 4726 1642 4682 
Q 1642 4634 1610 4573 
Q 1274 3990 1099 3344 
Q 925 2698 925 2013 
z
" transform="scale(0.015625)"/>
       <path id="Lato-Regular-69" d="M 1101 3242 
L 1101 0 
L 531 0 
L 531 3242 
L 1101 3242 
z
M 1229 4259 
Q 1229 4176 1195 4104 
Q 1162 4032 1106 3976 
Q 1050 3920 976 3888 
Q 902 3856 819 3856 
Q 736 3856 664 3888 
Q 592 3920 536 3976 
Q 480 4032 448 4104 
Q 416 4176 416 4259 
Q 416 4342 448 4417 
Q 480 4493 536 4549 
Q 592 4605 664 4637 
Q 736 4669 819 4669 
Q 902 4669 976 4637 
Q 1050 4605 1106 4549 
Q 1162 4493 1195 4417 
Q 1229 4342 1229 4259 
z
" transform="scale(0.015625)"/>
       <path id="Lato-Regular-6e" d="M 467 0 
L 467 3242 
L 806 3242 
Q 928 3242 960 3123 
L 1005 2771 
Q 1216 3005 1477 3149 
Q 1738 3293 2080 3293 
Q 2346 3293 2549 3205 
Q 2752 3117 2888 2955 
Q 3024 2794 3094 2566 
Q 3165 2339 3165 2064 
L 3165 0 
L 2595 0 
L 2595 2064 
Q 2595 2432 2427 2635 
Q 2259 2838 1914 2838 
Q 1661 2838 1441 2716 
Q 1222 2595 1037 2387 
L 1037 0 
L 467 0 
z
" transform="scale(0.015625)"/>
       <path id="Lato-Regular-73" d="M 2323 2707 
Q 2285 2637 2205 2637 
Q 2157 2637 2096 2672 
Q 2035 2707 1947 2750 
Q 1859 2794 1737 2830 
Q 1616 2867 1450 2867 
Q 1306 2867 1190 2830 
Q 1075 2794 993 2730 
Q 912 2666 869 2581 
Q 826 2496 826 2397 
Q 826 2272 898 2189 
Q 970 2106 1088 2045 
Q 1206 1984 1356 1937 
Q 1507 1891 1665 1838 
Q 1824 1786 1974 1722 
Q 2125 1658 2243 1562 
Q 2362 1466 2434 1326 
Q 2506 1187 2506 992 
Q 2506 768 2426 577 
Q 2346 387 2189 248 
Q 2032 109 1805 29 
Q 1578 -51 1280 -51 
Q 941 -51 665 59 
Q 390 170 198 342 
L 333 560 
Q 358 602 393 624 
Q 429 646 486 646 
Q 544 646 608 601 
Q 672 557 763 502 
Q 854 448 984 403 
Q 1114 358 1309 358 
Q 1475 358 1600 401 
Q 1725 445 1808 518 
Q 1891 592 1931 688 
Q 1971 784 1971 893 
Q 1971 1027 1899 1115 
Q 1827 1203 1708 1265 
Q 1590 1328 1438 1374 
Q 1286 1421 1128 1472 
Q 970 1523 818 1588 
Q 666 1654 547 1753 
Q 429 1853 357 1998 
Q 285 2144 285 2352 
Q 285 2538 361 2709 
Q 438 2880 585 3009 
Q 733 3139 947 3216 
Q 1162 3293 1437 3293 
Q 1757 3293 2011 3192 
Q 2266 3091 2451 2915 
L 2323 2707 
z
" transform="scale(0.015625)"/>
       <path id="Lato-Regular-29" d="M 954 2013 
Q 954 2698 779 3344 
Q 605 3990 269 4573 
Q 237 4634 237 4682 
Q 237 4726 259 4755 
Q 282 4784 317 4806 
L 570 4963 
Q 810 4592 978 4230 
Q 1146 3869 1250 3505 
Q 1354 3142 1402 2771 
Q 1450 2400 1450 2013 
Q 1450 1622 1402 1252 
Q 1354 883 1250 518 
Q 1146 154 978 -208 
Q 810 -570 570 -938 
L 317 -784 
Q 282 -762 259 -733 
Q 237 -704 237 -659 
Q 237 -634 243 -608 
Q 250 -582 269 -547 
Q 602 38 778 683 
Q 954 1328 954 2013 
z
" transform="scale(0.015625)"/>
      </defs>
      <use xlink:href="#Lato-Regular-4e"/>
      <use xlink:href="#Lato-Regular-75" x="75.600006"/>
      <use xlink:href="#Lato-Regular-6d" x="131.200012"/>
      <use xlink:href="#Lato-Regular-62" x="213.300018"/>
      <use xlink:href="#Lato-Regular-65" x="269.200027"/>
      <use xlink:href="#Lato-Regular-72" x="321.600037"/>
      <use xlink:href="#Lato-Regular-20" x="361.90004"/>
      <use xlink:href="#Lato-Regular-6f" x="381.200043"/>
      <use xlink:href="#Lato-Regular-66" x="436.800049"/>
      <use xlink:href="#Lato-Regular-20" x="470.500046"/>
      <use xlink:href="#Lato-Regular-70" x="489.800049"/>
      <use xlink:href="#Lato-Regular-65" x="545.000061"/>
      <use xlink:href="#Lato-Regular-6f" x="597.40007"/>
      <use xlink:href="#Lato-Regular-70" x="653.000076"/>
      <use xlink:href="#Lato-Regular-6c" x="708.200089"/>
      <use xlink:href="#Lato-Regular-65" x="733.800095"/>
      <use xlink:href="#Lato-Regular-20" x="786.200104"/>
      <use xlink:href="#Lato-Regular-28" x="805.500107"/>
      <use xlink:href="#Lato-Regular-6d" x="835.500107"/>
      <use xlink:href="#Lato-Regular-69" x="917.600113"/>
      <use xlink:href="#Lato-Regular-6c" x="943.200119"/>
      <use xlink:href="#Lato-Regular-6c" x="968.800125"/>
      <use xlink:href="#Lato-Regular-69" x="994.400131"/>
      <use xlink:href="#Lato-Regular-6f" x="1020.000137"/>
      <use xlink:href="#Lato-Regular-6e" x="1075.600143"/>
      <use xlink:href="#Lato-Regular-73" x="1131.20015"/>
      <use xlink:href="#Lato-Regular-29" x="1174.600159"/>
     </g>
    </g>
   </g>
   <g id="patch_3">
    <path d="M 55.310445 359.92 
L 86.613824 359.92 
L 86.613824 88.72 
L 55.310445 88.72 
z
" clip-path="url(#pd13878a474)" style="fill: #18375f; stroke: #ffffff; stroke-linejoin: miter"/>
   </g>
   <g id="patch_4">
    <path d="M 167.108227 359.92 
L 198.411607 359.92 
L 198.411607 93.798076 
L 167.108227 93.798076 
z
" clip-path="url(#pd13878a474)" style="fill: #18375f; stroke: #ffffff; stroke-linejoin: miter"/>
   </g>
   <g id="patch_5">
    <path d="M 278.90601 359.92 
L 310.209389 359.92 
L 310.209389 94.447158 
L 278.90601 94.447158 
z
" clip-path="url(#pd13878a474)" style="fill: #18375f; stroke: #ffffff; stroke-linejoin: miter"/>
   </g>
   <g id="patch_6">
    <path d="M 390.703793 359.92 
L 422.007172 359.92 
L 422.007172 94.485768 
L 390.703793 94.485768 
z
" clip-path="url(#pd13878a474)" style="fill: #18375f; stroke: #ffffff; stroke-linejoin: miter"/>
   </g>
   <g id="patch_7">
    <path d="M 86.613824 359.92 
L 117.917203 359.92 
L 117.917203 320.282494 
L 86.613824 320.282494 
z
" clip-path="url(#pd13878a474)" style="fill: #0072bc; stroke: #ffffff; stroke-linejoin: miter"/>
   </g>
   <g id="patch_8">
    <path d="M 198.411607 359.92 
L 229.714986 359.92 
L 229.714986 316.351525 
L 198.411607 316.351525 
z
" clip-path="url(#pd13878a474)" style="fill: #0072bc; stroke: #ffffff; stroke-linejoin: miter"/>
   </g>
   <g id="patch_9">
    <path d="M 310.209389 359.92 
L 341.512768 359.92 
L 341.512768 314.487014 
L 310.209389 314.487014 
z
" clip-path="url(#pd13878a474)" style="fill: #0072bc; stroke: #ffffff; stroke-linejoin: miter"/>
   </g>
   <g id="patch_10">
    <path d="M 422.007172 359.92 
L 453.310551 359.92 
L 453.310551 313.218978 
L 422.007172 313.218978 
z
" clip-path="url(#pd13878a474)" style="fill: #0072bc; stroke: #ffffff; stroke-linejoin: miter"/>
   </g>
   <g id="patch_11">
    <path d="M 117.917203 359.92 
L 149.220582 359.92 
L 149.220582 295.75761 
L 117.917203 295.75761 
z
" clip-path="url(#pd13878a474)" style="fill: #8ebeff; stroke: #ffffff; stroke-linejoin: miter"/>
   </g>
   <g id="patch_12">
    <path d="M 229.714986 359.92 
L 261.018365 359.92 
L 261.018365 292.056635 
L 229.714986 292.056635 
z
" clip-path="url(#pd13878a474)" style="fill: #8ebeff; stroke: #ffffff; stroke-linejoin: miter"/>
   </g>
   <g id="patch_13">
    <path d="M 341.512768 359.92 
L 372.816148 359.92 
L 372.816148 286.688309 
L 341.512768 286.688309 
z
" clip-path="url(#pd13878a474)" style="fill: #8ebeff; stroke: #ffffff; stroke-linejoin: miter"/>
   </g>
   <g id="patch_14">
    <path d="M 453.310551 359.92 
L 484.61393 359.92 
L 484.61393 281.032074 
L 453.310551 281.032074 
z
" clip-path="url(#pd13878a474)" style="fill: #8ebeff; stroke: #ffffff; stroke-linejoin: miter"/>
   </g>
   <g id="patch_15">
    <path d="M 46.724375 359.92 
L 493.2 359.92 
" style="fill: none; stroke: #000000; stroke-width: 0.8; stroke-linejoin: miter; stroke-linecap: square"/>
   </g>
   <g id="text_12">
    <!-- Source: UNHCR Refugee Data Finder -->
    <g style="fill: #666666" transform="translate(46.724375 391.549062)scale(0.09 -0.09)">
     <defs>
      <path id="Lato-Regular-53" d="M 2906 3869 
Q 2877 3821 2845 3797 
Q 2813 3773 2762 3773 
Q 2707 3773 2635 3827 
Q 2563 3882 2452 3947 
Q 2342 4013 2187 4067 
Q 2032 4122 1811 4122 
Q 1603 4122 1443 4066 
Q 1283 4010 1176 3914 
Q 1069 3818 1014 3688 
Q 960 3558 960 3408 
Q 960 3216 1054 3089 
Q 1149 2963 1304 2873 
Q 1459 2784 1656 2718 
Q 1853 2653 2059 2582 
Q 2266 2512 2462 2424 
Q 2659 2336 2814 2201 
Q 2970 2067 3064 1872 
Q 3158 1677 3158 1392 
Q 3158 1091 3056 827 
Q 2954 563 2757 368 
Q 2560 173 2273 61 
Q 1987 -51 1622 -51 
Q 1178 -51 811 110 
Q 445 272 186 547 
L 365 842 
Q 390 877 427 901 
Q 464 925 509 925 
Q 576 925 662 853 
Q 749 781 878 694 
Q 1008 608 1192 536 
Q 1376 464 1642 464 
Q 1862 464 2035 525 
Q 2208 586 2328 696 
Q 2448 806 2512 960 
Q 2576 1114 2576 1302 
Q 2576 1510 2481 1643 
Q 2387 1776 2233 1865 
Q 2080 1955 1883 2017 
Q 1686 2080 1480 2145 
Q 1274 2211 1077 2297 
Q 880 2384 726 2521 
Q 573 2659 478 2865 
Q 384 3072 384 3376 
Q 384 3619 478 3846 
Q 573 4074 752 4250 
Q 931 4426 1195 4531 
Q 1459 4637 1802 4637 
Q 2186 4637 2502 4515 
Q 2819 4394 3056 4163 
L 2906 3869 
z
" transform="scale(0.015625)"/>
      <path id="Lato-Regular-63" d="M 2678 2666 
Q 2653 2630 2627 2611 
Q 2602 2592 2554 2592 
Q 2506 2592 2450 2632 
Q 2394 2672 2307 2720 
Q 2221 2768 2097 2808 
Q 1974 2848 1795 2848 
Q 1558 2848 1376 2763 
Q 1194 2678 1070 2518 
Q 947 2358 884 2131 
Q 822 1904 822 1622 
Q 822 1328 889 1099 
Q 957 870 1078 715 
Q 1200 560 1374 478 
Q 1549 397 1766 397 
Q 1974 397 2108 446 
Q 2243 496 2332 557 
Q 2422 618 2480 667 
Q 2538 717 2595 717 
Q 2669 717 2704 662 
L 2864 454 
Q 2653 195 2336 75 
Q 2019 -45 1667 -45 
Q 1363 -45 1102 67 
Q 842 179 650 392 
Q 458 605 347 915 
Q 237 1226 237 1622 
Q 237 1984 337 2291 
Q 438 2598 632 2820 
Q 826 3043 1110 3168 
Q 1395 3293 1763 3293 
Q 2102 3293 2364 3182 
Q 2627 3072 2829 2870 
L 2678 2666 
z
" transform="scale(0.015625)"/>
      <path id="Lato-Regular-3a" d="M 410 352 
Q 410 435 440 508 
Q 470 582 523 636 
Q 576 691 649 723 
Q 723 755 806 755 
Q 890 755 963 723 
Q 1037 691 1091 636 
Q 1146 582 1176 508 
Q 1206 435 1206 352 
Q 1206 266 1176 194 
Q 1146 122 1091 67 
Q 1037 13 963 -17 
Q 890 -48 806 -48 
Q 723 -48 649 -17 
Q 576 13 523 67 
Q 470 122 440 194 
Q 410 266 410 352 
z
M 410 2752 
Q 410 2835 440 2908 
Q 470 2982 523 3036 
Q 576 3091 649 3123 
Q 723 3155 806 3155 
Q 890 3155 963 3123 
Q 1037 3091 1091 3036 
Q 1146 2982 1176 2908 
Q 1206 2835 1206 2752 
Q 1206 2666 1176 2594 
Q 1146 2522 1091 2467 
Q 1037 2413 963 2382 
Q 890 2352 806 2352 
Q 723 2352 649 2382 
Q 576 2413 523 2467 
Q 470 2522 440 2594 
Q 410 2666 410 2752 
z
" transform="scale(0.015625)"/>
      <path id="Lato-Regular-55" d="M 2339 493 
Q 2624 493 2848 589 
Q 3072 685 3227 857 
Q 3382 1030 3464 1270 
Q 3546 1510 3546 1798 
L 3546 4586 
L 4163 4586 
L 4163 1798 
Q 4163 1402 4036 1062 
Q 3910 723 3675 475 
Q 3440 227 3101 86 
Q 2762 -54 2339 -54 
Q 1917 -54 1577 86 
Q 1238 227 1001 475 
Q 765 723 638 1062 
Q 512 1402 512 1798 
L 512 4586 
L 1130 4586 
L 1130 1802 
Q 1130 1514 1211 1274 
Q 1293 1034 1448 861 
Q 1603 688 1828 590 
Q 2054 493 2339 493 
z
" transform="scale(0.015625)"/>
      <path id="Lato-Regular-48" d="M 4275 0 
L 3651 0 
L 3651 2086 
L 1181 2086 
L 1181 0 
L 557 0 
L 557 4586 
L 1181 4586 
L 1181 2541 
L 3651 2541 
L 3651 4586 
L 4275 4586 
L 4275 0 
z
" transform="scale(0.015625)"/>
      <path id="Lato-Regular-43" d="M 3789 947 
Q 3840 947 3882 906 
L 4125 640 
Q 3843 314 3441 131 
Q 3040 -51 2474 -51 
Q 1978 -51 1574 120 
Q 1171 291 886 600 
Q 602 909 445 1341 
Q 288 1773 288 2291 
Q 288 2810 456 3242 
Q 624 3674 928 3984 
Q 1232 4294 1656 4465 
Q 2080 4637 2592 4637 
Q 3098 4637 3464 4480 
Q 3830 4323 4115 4054 
L 3914 3770 
Q 3891 3738 3862 3717 
Q 3834 3696 3779 3696 
Q 3738 3696 3691 3726 
Q 3645 3757 3581 3801 
Q 3517 3846 3430 3897 
Q 3344 3949 3225 3993 
Q 3107 4038 2950 4068 
Q 2794 4099 2589 4099 
Q 2221 4099 1915 3972 
Q 1610 3846 1389 3612 
Q 1168 3379 1045 3043 
Q 922 2707 922 2291 
Q 922 1862 1045 1526 
Q 1168 1190 1381 958 
Q 1594 726 1885 604 
Q 2176 483 2512 483 
Q 2717 483 2880 507 
Q 3043 531 3182 582 
Q 3322 634 3442 712 
Q 3562 790 3683 899 
Q 3738 947 3789 947 
z
" transform="scale(0.015625)"/>
      <path id="Lato-Regular-52" d="M 1238 1914 
L 1238 0 
L 621 0 
L 621 4586 
L 1917 4586 
Q 2352 4586 2669 4498 
Q 2986 4410 3192 4243 
Q 3398 4077 3497 3841 
Q 3597 3606 3597 3315 
Q 3597 3072 3520 2861 
Q 3443 2650 3297 2482 
Q 3152 2314 2942 2195 
Q 2733 2077 2467 2016 
Q 2582 1949 2672 1821 
L 4010 0 
L 3459 0 
Q 3290 0 3210 131 
L 2019 1770 
Q 1965 1846 1901 1880 
Q 1837 1914 1709 1914 
L 1238 1914 
z
M 1238 2365 
L 1888 2365 
Q 2160 2365 2366 2430 
Q 2573 2496 2712 2616 
Q 2851 2736 2921 2902 
Q 2992 3069 2992 3270 
Q 2992 3680 2721 3888 
Q 2451 4096 1917 4096 
L 1238 4096 
L 1238 2365 
z
" transform="scale(0.015625)"/>
      <path id="Lato-Regular-67" d="M 1558 3296 
Q 1770 3296 1954 3249 
Q 2138 3203 2288 3114 
L 3168 3114 
L 3168 2902 
Q 3168 2797 3034 2768 
L 2666 2717 
Q 2774 2509 2774 2253 
Q 2774 2016 2683 1822 
Q 2592 1629 2430 1491 
Q 2269 1354 2046 1280 
Q 1824 1206 1558 1206 
Q 1331 1206 1130 1261 
Q 1027 1197 974 1123 
Q 922 1050 922 979 
Q 922 864 1014 805 
Q 1107 746 1260 720 
Q 1414 694 1609 688 
Q 1805 682 2008 667 
Q 2211 653 2406 617 
Q 2602 582 2755 502 
Q 2909 422 3001 281 
Q 3094 141 3094 -83 
Q 3094 -291 2990 -486 
Q 2886 -682 2691 -834 
Q 2496 -986 2214 -1077 
Q 1933 -1168 1578 -1168 
Q 1222 -1168 955 -1097 
Q 688 -1027 512 -908 
Q 336 -790 248 -635 
Q 160 -480 160 -310 
Q 160 -70 312 98 
Q 464 266 730 365 
Q 592 429 510 536 
Q 429 643 429 822 
Q 429 893 454 968 
Q 480 1043 533 1116 
Q 586 1190 662 1257 
Q 739 1325 842 1376 
Q 602 1510 466 1732 
Q 330 1955 330 2253 
Q 330 2490 421 2683 
Q 512 2877 675 3013 
Q 838 3149 1064 3222 
Q 1290 3296 1558 3296 
z
M 2570 -176 
Q 2570 -54 2502 19 
Q 2435 93 2320 133 
Q 2205 173 2054 192 
Q 1904 211 1737 219 
Q 1571 227 1398 236 
Q 1226 246 1069 272 
Q 886 186 772 61 
Q 659 -64 659 -237 
Q 659 -346 715 -440 
Q 771 -534 886 -603 
Q 1002 -672 1176 -712 
Q 1350 -752 1587 -752 
Q 1818 -752 2000 -710 
Q 2182 -669 2308 -592 
Q 2435 -515 2502 -409 
Q 2570 -304 2570 -176 
z
M 1558 1584 
Q 1731 1584 1864 1632 
Q 1997 1680 2086 1766 
Q 2176 1853 2221 1973 
Q 2266 2093 2266 2237 
Q 2266 2534 2085 2710 
Q 1904 2886 1558 2886 
Q 1216 2886 1035 2710 
Q 854 2534 854 2237 
Q 854 2093 900 1973 
Q 947 1853 1036 1766 
Q 1126 1680 1257 1632 
Q 1389 1584 1558 1584 
z
" transform="scale(0.015625)"/>
      <path id="Lato-Regular-44" d="M 4531 2291 
Q 4531 1776 4368 1353 
Q 4205 931 3907 630 
Q 3610 330 3194 165 
Q 2778 0 2272 0 
L 557 0 
L 557 4586 
L 2272 4586 
Q 2778 4586 3194 4421 
Q 3610 4256 3907 3953 
Q 4205 3651 4368 3228 
Q 4531 2806 4531 2291 
z
M 3894 2291 
Q 3894 2714 3779 3046 
Q 3664 3379 3453 3609 
Q 3242 3840 2941 3961 
Q 2640 4083 2272 4083 
L 1181 4083 
L 1181 502 
L 2272 502 
Q 2640 502 2941 624 
Q 3242 746 3453 974 
Q 3664 1203 3779 1536 
Q 3894 1869 3894 2291 
z
" transform="scale(0.015625)"/>
      <path id="Lato-Regular-61" d="M 2848 0 
L 2595 0 
Q 2512 0 2461 25 
Q 2410 51 2394 134 
L 2330 435 
Q 2202 320 2080 229 
Q 1958 138 1824 75 
Q 1690 13 1538 -19 
Q 1386 -51 1200 -51 
Q 1011 -51 846 1 
Q 682 54 560 160 
Q 438 266 366 427 
Q 294 589 294 810 
Q 294 1002 400 1179 
Q 506 1357 741 1494 
Q 976 1632 1357 1720 
Q 1738 1808 2288 1821 
L 2288 2074 
Q 2288 2451 2126 2644 
Q 1965 2838 1648 2838 
Q 1440 2838 1297 2785 
Q 1155 2733 1051 2667 
Q 947 2602 872 2549 
Q 797 2496 723 2496 
Q 666 2496 622 2526 
Q 579 2557 554 2602 
L 451 2784 
Q 720 3043 1030 3171 
Q 1341 3299 1718 3299 
Q 1990 3299 2201 3209 
Q 2413 3120 2557 2960 
Q 2701 2800 2774 2573 
Q 2848 2346 2848 2074 
L 2848 0 
z
M 1370 349 
Q 1520 349 1645 379 
Q 1770 410 1880 466 
Q 1990 522 2091 602 
Q 2192 682 2288 784 
L 2288 1459 
Q 1894 1446 1619 1396 
Q 1344 1347 1171 1267 
Q 998 1187 920 1078 
Q 842 970 842 835 
Q 842 707 883 614 
Q 925 522 995 462 
Q 1066 403 1162 376 
Q 1258 349 1370 349 
z
" transform="scale(0.015625)"/>
      <path id="Lato-Regular-74" d="M 1450 -51 
Q 1066 -51 859 163 
Q 653 378 653 781 
L 653 2765 
L 262 2765 
Q 211 2765 176 2795 
Q 141 2826 141 2890 
L 141 3117 
L 672 3184 
L 803 4186 
Q 810 4234 845 4264 
Q 880 4294 934 4294 
L 1222 4294 
L 1222 3178 
L 2150 3178 
L 2150 2765 
L 1222 2765 
L 1222 819 
Q 1222 614 1321 515 
Q 1421 416 1578 416 
Q 1667 416 1732 440 
Q 1798 464 1846 493 
Q 1894 522 1928 546 
Q 1962 570 1987 570 
Q 2032 570 2067 515 
L 2234 243 
Q 2086 106 1878 27 
Q 1670 -51 1450 -51 
z
" transform="scale(0.015625)"/>
      <path id="Lato-Regular-46" d="M 3382 4586 
L 3382 4080 
L 1181 4080 
L 1181 2477 
L 3062 2477 
L 3062 1971 
L 1181 1971 
L 1181 0 
L 557 0 
L 557 4586 
L 3382 4586 
z
" transform="scale(0.015625)"/>
      <path id="Lato-Regular-64" d="M 2749 0 
Q 2627 0 2595 118 
L 2544 512 
Q 2336 259 2069 107 
Q 1802 -45 1456 -45 
Q 1178 -45 950 62 
Q 723 170 563 378 
Q 403 586 316 896 
Q 230 1206 230 1610 
Q 230 1968 326 2277 
Q 422 2586 603 2813 
Q 784 3040 1043 3169 
Q 1302 3299 1632 3299 
Q 1930 3299 2141 3198 
Q 2352 3098 2518 2915 
L 2518 4714 
L 3088 4714 
L 3088 0 
L 2749 0 
z
M 1645 416 
Q 1923 416 2132 544 
Q 2342 672 2518 906 
L 2518 2474 
Q 2362 2685 2174 2769 
Q 1987 2854 1760 2854 
Q 1306 2854 1062 2531 
Q 819 2208 819 1610 
Q 819 1293 873 1067 
Q 928 842 1033 696 
Q 1139 550 1292 483 
Q 1446 416 1645 416 
z
" transform="scale(0.015625)"/>
     </defs>
     <use xlink:href="#Lato-Regular-53"/>
     <use xlink:href="#Lato-Regular-6f" x="53"/>
     <use xlink:href="#Lato-Regular-75" x="108.600006"/>
     <use xlink:href="#Lato-Regular-72" x="164.200012"/>
     <use xlink:href="#Lato-Regular-63" x="204.500015"/>
     <use xlink:href="#Lato-Regular-65" x="251.200012"/>
     <use xlink:href="#Lato-Regular-3a" x="303.600021"/>
     <use xlink:href="#Lato-Regular-20" x="328.800018"/>
     <use xlink:href="#Lato-Regular-55" x="348.100021"/>
     <use xlink:href="#Lato-Regular-4e" x="421.100037"/>
     <use xlink:href="#Lato-Regular-48" x="496.700043"/>
     <use xlink:href="#Lato-Regular-43" x="572.300049"/>
     <use xlink:href="#Lato-Regular-52" x="640.800064"/>
     <use xlink:href="#Lato-Regular-20" x="705.200073"/>
     <use xlink:href="#Lato-Regular-52" x="724.500076"/>
     <use xlink:href="#Lato-Regular-65" x="788.900085"/>
     <use xlink:href="#Lato-Regular-66" x="841.300095"/>
     <use xlink:href="#Lato-Regular-75" x="875.000092"/>
     <use xlink:href="#Lato-Regular-67" x="930.600098"/>
     <use xlink:href="#Lato-Regular-65" x="981.700104"/>
     <use xlink:href="#Lato-Regular-65" x="1034.100113"/>
     <use xlink:href="#Lato-Regular-20" x="1086.500122"/>
     <use xlink:href="#Lato-Regular-44" x="1105.800125"/>
     <use xlink:href="#Lato-Regular-61" x="1181.100143"/>
     <use xlink:href="#Lato-Regular-74" x="1231.800156"/>
     <use xlink:href="#Lato-Regular-61" x="1269.100159"/>
     <use xlink:href="#Lato-Regular-20" x="1319.800171"/>
     <use xlink:href="#Lato-Regular-46" x="1339.100174"/>
     <use xlink:href="#Lato-Regular-69" x="1395.70018"/>
     <use xlink:href="#Lato-Regular-6e" x="1421.300186"/>
     <use xlink:href="#Lato-Regular-64" x="1476.900192"/>
     <use xlink:href="#Lato-Regular-65" x="1532.800201"/>
     <use xlink:href="#Lato-Regular-72" x="1585.200211"/>
    </g>
   </g>
   <g id="text_13">
    <!-- ©UNHCR, The UN Refugee Agency -->
    <g style="fill: #666666" transform="translate(46.724375 401.549062)scale(0.09 -0.09)">
     <defs>
      <path id="Lato-Regular-a9" d="M 3296 1482 
Q 3322 1498 3339 1509 
Q 3357 1520 3376 1520 
Q 3411 1520 3424 1510 
Q 3437 1501 3456 1482 
L 3651 1277 
Q 3469 1066 3203 949 
Q 2938 832 2566 832 
Q 2253 832 1995 941 
Q 1738 1050 1554 1245 
Q 1370 1440 1269 1709 
Q 1168 1978 1168 2298 
Q 1168 2621 1278 2891 
Q 1389 3162 1584 3355 
Q 1779 3549 2046 3656 
Q 2314 3763 2627 3763 
Q 2973 3763 3216 3654 
Q 3459 3546 3642 3370 
L 3494 3162 
Q 3478 3142 3452 3123 
Q 3427 3104 3389 3104 
Q 3344 3104 3294 3139 
Q 3245 3174 3165 3217 
Q 3085 3261 2963 3297 
Q 2842 3334 2653 3334 
Q 2429 3334 2248 3262 
Q 2067 3190 1940 3056 
Q 1814 2922 1745 2730 
Q 1677 2538 1677 2298 
Q 1677 2051 1745 1857 
Q 1814 1664 1936 1533 
Q 2058 1402 2227 1333 
Q 2397 1264 2595 1264 
Q 2749 1264 2854 1283 
Q 2960 1302 3037 1334 
Q 3114 1366 3173 1404 
Q 3232 1443 3296 1482 
z
M 218 2291 
Q 218 2614 301 2913 
Q 384 3213 536 3473 
Q 688 3734 902 3947 
Q 1117 4160 1376 4313 
Q 1635 4467 1932 4550 
Q 2230 4634 2554 4634 
Q 2877 4634 3176 4550 
Q 3475 4467 3734 4313 
Q 3994 4160 4208 3947 
Q 4422 3734 4574 3473 
Q 4726 3213 4809 2913 
Q 4893 2614 4893 2291 
Q 4893 1971 4809 1672 
Q 4726 1373 4574 1113 
Q 4422 854 4208 641 
Q 3994 429 3734 275 
Q 3475 122 3176 38 
Q 2877 -45 2554 -45 
Q 2230 -45 1932 38 
Q 1635 122 1376 275 
Q 1117 429 902 641 
Q 688 854 536 1113 
Q 384 1373 301 1670 
Q 218 1968 218 2291 
z
M 538 2291 
Q 538 2006 608 1744 
Q 678 1482 809 1253 
Q 941 1024 1123 838 
Q 1306 653 1530 520 
Q 1754 387 2013 315 
Q 2272 243 2554 243 
Q 2976 243 3345 403 
Q 3715 563 3988 840 
Q 4262 1117 4420 1489 
Q 4579 1862 4579 2291 
Q 4579 2576 4507 2841 
Q 4435 3107 4304 3336 
Q 4173 3565 3989 3753 
Q 3805 3942 3581 4075 
Q 3357 4208 3096 4281 
Q 2835 4355 2554 4355 
Q 2131 4355 1763 4193 
Q 1395 4032 1123 3752 
Q 851 3472 694 3096 
Q 538 2720 538 2291 
z
" transform="scale(0.015625)"/>
      <path id="Lato-Regular-2c" d="M 301 394 
Q 301 467 328 532 
Q 355 598 404 648 
Q 454 698 524 726 
Q 595 755 678 755 
Q 774 755 849 720 
Q 925 685 974 622 
Q 1024 560 1049 478 
Q 1075 397 1075 301 
Q 1075 157 1033 1 
Q 992 -154 915 -306 
Q 838 -458 724 -602 
Q 611 -746 467 -867 
L 371 -774 
Q 330 -736 330 -685 
Q 330 -643 374 -598 
Q 406 -563 456 -504 
Q 506 -445 557 -368 
Q 608 -291 651 -198 
Q 694 -106 714 0 
L 672 0 
Q 589 0 521 29 
Q 454 58 404 110 
Q 355 163 328 235 
Q 301 307 301 394 
z
" transform="scale(0.015625)"/>
      <path id="Lato-Regular-54" d="M 3680 4586 
L 3680 4064 
L 2198 4064 
L 2198 0 
L 1578 0 
L 1578 4064 
L 90 4064 
L 90 4586 
L 3680 4586 
z
" transform="scale(0.015625)"/>
      <path id="Lato-Regular-68" d="M 467 0 
L 467 4714 
L 1037 4714 
L 1037 2806 
Q 1245 3027 1497 3160 
Q 1750 3293 2080 3293 
Q 2346 3293 2549 3205 
Q 2752 3117 2888 2955 
Q 3024 2794 3094 2566 
Q 3165 2339 3165 2064 
L 3165 0 
L 2595 0 
L 2595 2064 
Q 2595 2432 2427 2635 
Q 2259 2838 1914 2838 
Q 1661 2838 1441 2716 
Q 1222 2595 1037 2387 
L 1037 0 
L 467 0 
z
" transform="scale(0.015625)"/>
      <path id="Lato-Regular-41" d="M 4330 0 
L 3850 0 
Q 3766 0 3715 41 
Q 3664 83 3638 147 
L 3210 1254 
L 1152 1254 
L 723 147 
Q 701 90 646 45 
Q 592 0 512 0 
L 32 0 
L 1866 4586 
L 2496 4586 
L 4330 0 
z
M 1325 1702 
L 3037 1702 
L 2317 3568 
Q 2246 3741 2179 4000 
Q 2144 3869 2110 3758 
Q 2077 3648 2045 3565 
L 1325 1702 
z
" transform="scale(0.015625)"/>
      <path id="Lato-Regular-79" d="M 1418 -957 
Q 1389 -1021 1345 -1059 
Q 1302 -1098 1213 -1098 
L 790 -1098 
L 1382 189 
L 45 3242 
L 538 3242 
Q 611 3242 652 3205 
Q 694 3168 714 3123 
L 1581 1082 
Q 1610 1011 1630 940 
Q 1651 870 1667 797 
Q 1690 870 1712 940 
Q 1734 1011 1763 1085 
L 2605 3123 
Q 2624 3174 2670 3208 
Q 2717 3242 2771 3242 
L 3226 3242 
L 1418 -957 
z
" transform="scale(0.015625)"/>
     </defs>
     <use xlink:href="#Lato-Regular-a9"/>
     <use xlink:href="#Lato-Regular-55" x="79.800018"/>
     <use xlink:href="#Lato-Regular-4e" x="152.800034"/>
     <use xlink:href="#Lato-Regular-48" x="228.40004"/>
     <use xlink:href="#Lato-Regular-43" x="304.000046"/>
     <use xlink:href="#Lato-Regular-52" x="372.500061"/>
     <use xlink:href="#Lato-Regular-2c" x="436.90007"/>
     <use xlink:href="#Lato-Regular-20" x="458.100067"/>
     <use xlink:href="#Lato-Regular-54" x="477.40007"/>
     <use xlink:href="#Lato-Regular-68" x="536.40007"/>
     <use xlink:href="#Lato-Regular-65" x="592.000076"/>
     <use xlink:href="#Lato-Regular-20" x="644.400085"/>
     <use xlink:href="#Lato-Regular-55" x="663.700089"/>
     <use xlink:href="#Lato-Regular-4e" x="736.700104"/>
     <use xlink:href="#Lato-Regular-20" x="812.30011"/>
     <use xlink:href="#Lato-Regular-52" x="831.600113"/>
     <use xlink:href="#Lato-Regular-65" x="896.000122"/>
     <use xlink:href="#Lato-Regular-66" x="948.400131"/>
     <use xlink:href="#Lato-Regular-75" x="982.100128"/>
     <use xlink:href="#Lato-Regular-67" x="1037.700134"/>
     <use xlink:href="#Lato-Regular-65" x="1088.80014"/>
     <use xlink:href="#Lato-Regular-65" x="1141.20015"/>
     <use xlink:href="#Lato-Regular-20" x="1193.600159"/>
     <use xlink:href="#Lato-Regular-41" x="1212.900162"/>
     <use xlink:href="#Lato-Regular-67" x="1280.900177"/>
     <use xlink:href="#Lato-Regular-65" x="1332.000183"/>
     <use xlink:href="#Lato-Regular-6e" x="1384.400192"/>
     <use xlink:href="#Lato-Regular-63" x="1440.000198"/>
     <use xlink:href="#Lato-Regular-79" x="1486.700195"/>
    </g>
   </g>
   <g id="text_14">
    <!-- Refugee in Africa region | 2018-2021 -->
    <g transform="translate(46.724375 21.6)scale(0.14 -0.14)">
     <defs>
      <path id="Lato-Bold-52" d="M 1357 1808 
L 1357 0 
L 496 0 
L 496 4627 
L 1907 4627 
Q 2381 4627 2718 4529 
Q 3056 4432 3272 4256 
Q 3488 4080 3589 3835 
Q 3690 3590 3690 3296 
Q 3690 3062 3621 2854 
Q 3552 2646 3422 2476 
Q 3293 2307 3102 2179 
Q 2912 2051 2669 1974 
Q 2832 1882 2950 1709 
L 4109 0 
L 3334 0 
Q 3222 0 3144 45 
Q 3066 90 3011 173 
L 2038 1654 
Q 1984 1738 1918 1773 
Q 1853 1808 1725 1808 
L 1357 1808 
z
M 1357 2426 
L 1894 2426 
Q 2138 2426 2318 2486 
Q 2499 2547 2616 2654 
Q 2733 2762 2790 2909 
Q 2848 3056 2848 3232 
Q 2848 3584 2616 3773 
Q 2384 3962 1907 3962 
L 1357 3962 
L 1357 2426 
z
" transform="scale(0.015625)"/>
      <path id="Lato-Bold-65" d="M 1779 3334 
Q 2090 3334 2350 3235 
Q 2611 3136 2800 2945 
Q 2989 2755 3094 2478 
Q 3200 2202 3200 1846 
Q 3200 1757 3192 1697 
Q 3184 1638 3163 1604 
Q 3142 1571 3107 1556 
Q 3072 1542 3018 1542 
L 989 1542 
Q 1024 1037 1261 800 
Q 1498 563 1888 563 
Q 2080 563 2219 608 
Q 2358 653 2462 707 
Q 2566 762 2644 806 
Q 2723 851 2797 851 
Q 2845 851 2880 832 
Q 2915 813 2941 778 
L 3171 490 
Q 3040 336 2877 232 
Q 2714 128 2536 65 
Q 2358 3 2174 -22 
Q 1990 -48 1818 -48 
Q 1475 -48 1180 65 
Q 886 179 668 401 
Q 451 624 326 952 
Q 202 1280 202 1712 
Q 202 2048 310 2344 
Q 419 2640 622 2859 
Q 826 3078 1118 3206 
Q 1411 3334 1779 3334 
z
M 1795 2768 
Q 1450 2768 1254 2573 
Q 1059 2378 1005 2019 
L 2490 2019 
Q 2490 2173 2448 2309 
Q 2406 2445 2320 2547 
Q 2234 2650 2102 2709 
Q 1971 2768 1795 2768 
z
" transform="scale(0.015625)"/>
      <path id="Lato-Bold-66" d="M 563 0 
L 563 2688 
L 278 2733 
Q 186 2749 130 2797 
Q 74 2845 74 2931 
L 74 3254 
L 563 3254 
L 563 3498 
Q 563 3779 648 4003 
Q 733 4227 891 4384 
Q 1050 4541 1277 4624 
Q 1504 4707 1789 4707 
Q 2016 4707 2211 4646 
L 2195 4250 
Q 2189 4157 2109 4134 
Q 2029 4112 1923 4112 
Q 1782 4112 1672 4081 
Q 1562 4051 1485 3976 
Q 1408 3901 1368 3777 
Q 1328 3654 1328 3472 
L 1328 3254 
L 2182 3254 
L 2182 2691 
L 1354 2691 
L 1354 0 
L 563 0 
z
" transform="scale(0.015625)"/>
      <path id="Lato-Bold-75" d="M 1146 3283 
L 1146 1197 
Q 1146 896 1285 731 
Q 1424 566 1702 566 
Q 1907 566 2086 657 
Q 2266 749 2426 909 
L 2426 3283 
L 3216 3283 
L 3216 0 
L 2733 0 
Q 2579 0 2531 144 
L 2477 406 
Q 2374 304 2265 219 
Q 2157 134 2033 75 
Q 1910 16 1768 -17 
Q 1626 -51 1462 -51 
Q 1194 -51 987 40 
Q 781 131 640 297 
Q 499 464 427 693 
Q 355 922 355 1197 
L 355 3283 
L 1146 3283 
z
" transform="scale(0.015625)"/>
      <path id="Lato-Bold-67" d="M 1558 3341 
Q 1770 3341 1955 3297 
Q 2141 3254 2294 3171 
L 3238 3171 
L 3238 2877 
Q 3238 2803 3200 2761 
Q 3162 2720 3069 2704 
L 2774 2650 
Q 2806 2566 2824 2473 
Q 2842 2381 2842 2278 
Q 2842 2035 2744 1838 
Q 2646 1642 2475 1504 
Q 2304 1366 2069 1291 
Q 1834 1216 1558 1216 
Q 1373 1216 1197 1251 
Q 1043 1158 1043 1043 
Q 1043 944 1134 897 
Q 1226 851 1374 832 
Q 1523 813 1712 808 
Q 1901 803 2099 787 
Q 2298 771 2486 731 
Q 2675 691 2824 604 
Q 2973 518 3064 369 
Q 3155 221 3155 -13 
Q 3155 -230 3048 -435 
Q 2941 -640 2737 -800 
Q 2534 -960 2240 -1057 
Q 1946 -1155 1568 -1155 
Q 1194 -1155 918 -1083 
Q 643 -1011 462 -891 
Q 282 -771 192 -614 
Q 102 -458 102 -288 
Q 102 -58 243 99 
Q 384 256 634 349 
Q 512 416 438 528 
Q 365 640 365 819 
Q 365 893 390 971 
Q 416 1050 469 1126 
Q 522 1203 602 1272 
Q 682 1341 790 1395 
Q 541 1530 398 1754 
Q 256 1978 256 2278 
Q 256 2522 353 2718 
Q 451 2915 625 3054 
Q 800 3194 1038 3267 
Q 1277 3341 1558 3341 
z
M 2426 -147 
Q 2426 -51 2368 9 
Q 2310 70 2211 104 
Q 2112 138 1979 154 
Q 1846 170 1697 178 
Q 1549 186 1390 194 
Q 1232 202 1085 221 
Q 950 147 868 46 
Q 787 -54 787 -186 
Q 787 -272 830 -347 
Q 874 -422 968 -476 
Q 1062 -531 1212 -561 
Q 1363 -592 1581 -592 
Q 1802 -592 1962 -558 
Q 2122 -525 2226 -465 
Q 2330 -406 2378 -324 
Q 2426 -243 2426 -147 
z
M 1558 1722 
Q 1706 1722 1814 1762 
Q 1923 1802 1995 1872 
Q 2067 1942 2104 2041 
Q 2141 2141 2141 2259 
Q 2141 2502 1995 2644 
Q 1850 2787 1558 2787 
Q 1267 2787 1121 2644 
Q 976 2502 976 2259 
Q 976 2144 1013 2045 
Q 1050 1946 1122 1874 
Q 1194 1802 1304 1762 
Q 1414 1722 1558 1722 
z
" transform="scale(0.015625)"/>
      <path id="Lato-Bold-20" transform="scale(0.015625)"/>
      <path id="Lato-Bold-69" d="M 1264 3283 
L 1264 0 
L 474 0 
L 474 3283 
L 1264 3283 
z
M 1382 4240 
Q 1382 4138 1340 4048 
Q 1299 3958 1230 3891 
Q 1162 3824 1069 3784 
Q 976 3744 870 3744 
Q 768 3744 677 3784 
Q 586 3824 518 3891 
Q 451 3958 411 4048 
Q 371 4138 371 4240 
Q 371 4346 411 4438 
Q 451 4531 518 4598 
Q 586 4666 677 4706 
Q 768 4746 870 4746 
Q 976 4746 1069 4706 
Q 1162 4666 1230 4598 
Q 1299 4531 1340 4438 
Q 1382 4346 1382 4240 
z
" transform="scale(0.015625)"/>
      <path id="Lato-Bold-6e" d="M 422 0 
L 422 3283 
L 906 3283 
Q 1059 3283 1107 3139 
L 1162 2880 
Q 1261 2982 1371 3065 
Q 1482 3149 1605 3209 
Q 1728 3270 1869 3302 
Q 2010 3334 2176 3334 
Q 2445 3334 2653 3243 
Q 2861 3152 3000 2987 
Q 3139 2822 3211 2593 
Q 3283 2365 3283 2090 
L 3283 0 
L 2493 0 
L 2493 2090 
Q 2493 2390 2353 2555 
Q 2214 2720 1936 2720 
Q 1731 2720 1552 2627 
Q 1373 2534 1213 2374 
L 1213 0 
L 422 0 
z
" transform="scale(0.015625)"/>
      <path id="Lato-Bold-41" d="M 4534 0 
L 3869 0 
Q 3757 0 3685 56 
Q 3613 112 3581 195 
L 3235 1139 
L 1318 1139 
L 973 195 
Q 947 122 872 61 
Q 797 0 688 0 
L 19 0 
L 1837 4627 
L 2717 4627 
L 4534 0 
z
M 1539 1747 
L 3014 1747 
L 2451 3286 
Q 2413 3389 2366 3528 
Q 2320 3667 2275 3830 
Q 2230 3667 2187 3526 
Q 2144 3386 2102 3280 
L 1539 1747 
z
" transform="scale(0.015625)"/>
      <path id="Lato-Bold-72" d="M 422 0 
L 422 3283 
L 886 3283 
Q 1008 3283 1056 3238 
Q 1104 3194 1120 3085 
L 1168 2688 
Q 1344 2992 1581 3168 
Q 1818 3344 2112 3344 
Q 2355 3344 2515 3232 
L 2413 2640 
Q 2403 2582 2371 2558 
Q 2339 2534 2285 2534 
Q 2237 2534 2153 2556 
Q 2070 2579 1933 2579 
Q 1686 2579 1510 2443 
Q 1334 2307 1213 2045 
L 1213 0 
L 422 0 
z
" transform="scale(0.015625)"/>
      <path id="Lato-Bold-63" d="M 2730 2589 
Q 2694 2544 2660 2518 
Q 2627 2493 2563 2493 
Q 2502 2493 2444 2529 
Q 2387 2566 2307 2612 
Q 2227 2659 2116 2696 
Q 2006 2733 1843 2733 
Q 1635 2733 1478 2657 
Q 1322 2582 1218 2441 
Q 1114 2301 1062 2101 
Q 1011 1901 1011 1648 
Q 1011 1386 1067 1181 
Q 1123 976 1228 837 
Q 1334 698 1484 626 
Q 1635 554 1824 554 
Q 2013 554 2129 600 
Q 2246 646 2326 702 
Q 2406 758 2465 804 
Q 2525 851 2598 851 
Q 2694 851 2742 778 
L 2970 490 
Q 2838 336 2684 232 
Q 2531 128 2366 65 
Q 2202 3 2026 -22 
Q 1850 -48 1677 -48 
Q 1373 -48 1104 65 
Q 835 179 635 396 
Q 435 614 318 929 
Q 202 1245 202 1648 
Q 202 2010 306 2318 
Q 410 2627 611 2852 
Q 813 3078 1110 3206 
Q 1408 3334 1795 3334 
Q 2163 3334 2440 3216 
Q 2717 3098 2938 2877 
L 2730 2589 
z
" transform="scale(0.015625)"/>
      <path id="Lato-Bold-61" d="M 2995 0 
L 2640 0 
Q 2528 0 2464 33 
Q 2400 67 2368 170 
L 2298 403 
Q 2173 291 2053 206 
Q 1933 122 1805 64 
Q 1677 6 1533 -22 
Q 1389 -51 1213 -51 
Q 1005 -51 829 5 
Q 653 61 526 173 
Q 400 285 329 451 
Q 259 618 259 838 
Q 259 1024 356 1205 
Q 454 1386 681 1531 
Q 909 1677 1286 1773 
Q 1664 1869 2224 1882 
L 2224 2074 
Q 2224 2403 2085 2561 
Q 1946 2720 1680 2720 
Q 1488 2720 1360 2675 
Q 1232 2630 1137 2574 
Q 1043 2518 963 2473 
Q 883 2429 787 2429 
Q 707 2429 649 2470 
Q 592 2512 557 2573 
L 413 2826 
Q 979 3344 1779 3344 
Q 2067 3344 2292 3249 
Q 2518 3155 2675 2987 
Q 2832 2819 2913 2585 
Q 2995 2352 2995 2074 
L 2995 0 
z
M 1459 493 
Q 1581 493 1683 515 
Q 1786 538 1877 582 
Q 1968 627 2053 692 
Q 2138 758 2224 848 
L 2224 1402 
Q 1878 1386 1646 1342 
Q 1414 1299 1273 1232 
Q 1133 1165 1073 1075 
Q 1014 986 1014 880 
Q 1014 672 1137 582 
Q 1261 493 1459 493 
z
" transform="scale(0.015625)"/>
      <path id="Lato-Bold-6f" d="M 1824 3334 
Q 2192 3334 2491 3216 
Q 2790 3098 3001 2880 
Q 3213 2662 3328 2348 
Q 3443 2035 3443 1648 
Q 3443 1258 3328 944 
Q 3213 630 3001 409 
Q 2790 189 2491 70 
Q 2192 -48 1824 -48 
Q 1456 -48 1155 70 
Q 854 189 641 409 
Q 429 630 312 944 
Q 195 1258 195 1648 
Q 195 2035 312 2348 
Q 429 2662 641 2880 
Q 854 3098 1155 3216 
Q 1456 3334 1824 3334 
z
M 1824 560 
Q 2234 560 2430 835 
Q 2627 1110 2627 1642 
Q 2627 2173 2430 2451 
Q 2234 2730 1824 2730 
Q 1408 2730 1209 2450 
Q 1011 2170 1011 1642 
Q 1011 1114 1209 837 
Q 1408 560 1824 560 
z
" transform="scale(0.015625)"/>
      <path id="Lato-Bold-7c" d="M 653 4950 
L 1267 4950 
L 1267 -1072 
L 653 -1072 
L 653 4950 
z
" transform="scale(0.015625)"/>
      <path id="Lato-Bold-32" d="M 1926 4678 
Q 2246 4678 2512 4584 
Q 2778 4490 2966 4317 
Q 3155 4144 3260 3901 
Q 3366 3658 3366 3360 
Q 3366 3104 3291 2886 
Q 3216 2669 3089 2470 
Q 2963 2272 2793 2086 
Q 2624 1901 2438 1709 
L 1395 643 
Q 1549 688 1696 712 
Q 1843 736 1978 736 
L 3165 736 
Q 3293 736 3368 664 
Q 3443 592 3443 474 
L 3443 0 
L 269 0 
L 269 262 
Q 269 342 302 428 
Q 336 515 410 589 
L 1814 1997 
Q 1990 2176 2129 2339 
Q 2269 2502 2363 2662 
Q 2458 2822 2507 2987 
Q 2557 3152 2557 3334 
Q 2557 3501 2509 3627 
Q 2461 3754 2371 3840 
Q 2282 3926 2158 3969 
Q 2035 4013 1882 4013 
Q 1597 4013 1413 3869 
Q 1229 3725 1155 3482 
Q 1120 3360 1049 3307 
Q 979 3254 870 3254 
Q 822 3254 765 3264 
L 349 3338 
Q 397 3670 534 3921 
Q 672 4173 878 4341 
Q 1085 4509 1352 4593 
Q 1619 4678 1926 4678 
z
" transform="scale(0.015625)"/>
      <path id="Lato-Bold-30" d="M 3552 2314 
Q 3552 1709 3422 1262 
Q 3293 816 3064 525 
Q 2835 234 2523 91 
Q 2211 -51 1850 -51 
Q 1488 -51 1179 91 
Q 870 234 643 525 
Q 416 816 288 1262 
Q 160 1709 160 2314 
Q 160 2922 288 3366 
Q 416 3811 643 4102 
Q 870 4394 1179 4536 
Q 1488 4678 1850 4678 
Q 2211 4678 2523 4536 
Q 2835 4394 3064 4102 
Q 3293 3811 3422 3366 
Q 3552 2922 3552 2314 
z
M 2736 2314 
Q 2736 2816 2662 3145 
Q 2589 3475 2465 3670 
Q 2342 3866 2182 3944 
Q 2022 4022 1850 4022 
Q 1680 4022 1521 3944 
Q 1363 3866 1241 3670 
Q 1120 3475 1048 3145 
Q 976 2816 976 2314 
Q 976 1811 1048 1481 
Q 1120 1152 1241 957 
Q 1363 762 1521 683 
Q 1680 605 1850 605 
Q 2022 605 2182 683 
Q 2342 762 2465 957 
Q 2589 1152 2662 1481 
Q 2736 1811 2736 2314 
z
" transform="scale(0.015625)"/>
      <path id="Lato-Bold-31" d="M 861 592 
L 1798 592 
L 1798 3290 
Q 1798 3446 1808 3619 
L 1142 3062 
Q 1101 3027 1057 3014 
Q 1014 3002 973 3002 
Q 909 3002 856 3029 
Q 803 3056 778 3091 
L 528 3434 
L 1939 4634 
L 2589 4634 
L 2589 592 
L 3421 592 
L 3421 0 
L 861 0 
L 861 592 
z
" transform="scale(0.015625)"/>
      <path id="Lato-Bold-38" d="M 1856 -51 
Q 1498 -51 1202 45 
Q 906 141 694 317 
Q 483 493 366 742 
Q 250 992 250 1299 
Q 250 1709 451 1992 
Q 653 2275 1078 2413 
Q 739 2554 571 2813 
Q 403 3072 403 3437 
Q 403 3699 510 3926 
Q 618 4154 810 4322 
Q 1002 4490 1269 4584 
Q 1536 4678 1856 4678 
Q 2176 4678 2443 4584 
Q 2710 4490 2902 4322 
Q 3094 4154 3201 3926 
Q 3309 3699 3309 3437 
Q 3309 3072 3139 2813 
Q 2970 2554 2634 2413 
Q 3059 2275 3260 1992 
Q 3462 1709 3462 1299 
Q 3462 992 3345 742 
Q 3229 493 3017 317 
Q 2806 141 2510 45 
Q 2214 -51 1856 -51 
z
M 1856 566 
Q 2051 566 2198 622 
Q 2346 678 2446 777 
Q 2547 877 2598 1014 
Q 2650 1152 2650 1312 
Q 2650 1693 2438 1888 
Q 2227 2083 1856 2083 
Q 1485 2083 1273 1888 
Q 1062 1693 1062 1312 
Q 1062 1152 1113 1014 
Q 1165 877 1265 777 
Q 1366 678 1513 622 
Q 1661 566 1856 566 
z
M 1856 2704 
Q 2048 2704 2179 2765 
Q 2310 2826 2390 2926 
Q 2470 3027 2504 3156 
Q 2538 3286 2538 3424 
Q 2538 3555 2496 3673 
Q 2454 3792 2371 3883 
Q 2288 3974 2160 4028 
Q 2032 4083 1856 4083 
Q 1680 4083 1552 4028 
Q 1424 3974 1339 3883 
Q 1254 3792 1214 3673 
Q 1174 3555 1174 3424 
Q 1174 3286 1208 3156 
Q 1242 3027 1322 2926 
Q 1402 2826 1533 2765 
Q 1664 2704 1856 2704 
z
" transform="scale(0.015625)"/>
      <path id="Lato-Bold-2d" d="M 320 2262 
L 1978 2262 
L 1978 1603 
L 320 1603 
L 320 2262 
z
" transform="scale(0.015625)"/>
     </defs>
     <use xlink:href="#Lato-Bold-52"/>
     <use xlink:href="#Lato-Bold-65" x="65.500015"/>
     <use xlink:href="#Lato-Bold-66" x="118.950027"/>
     <use xlink:href="#Lato-Bold-75" x="154.000031"/>
     <use xlink:href="#Lato-Bold-67" x="210.850037"/>
     <use xlink:href="#Lato-Bold-65" x="262.600037"/>
     <use xlink:href="#Lato-Bold-65" x="316.050049"/>
     <use xlink:href="#Lato-Bold-20" x="369.500061"/>
     <use xlink:href="#Lato-Bold-69" x="388.800064"/>
     <use xlink:href="#Lato-Bold-6e" x="415.90007"/>
     <use xlink:href="#Lato-Bold-20" x="472.750076"/>
     <use xlink:href="#Lato-Bold-41" x="492.050079"/>
     <use xlink:href="#Lato-Bold-66" x="563.050095"/>
     <use xlink:href="#Lato-Bold-72" x="598.100098"/>
     <use xlink:href="#Lato-Bold-69" x="638.950104"/>
     <use xlink:href="#Lato-Bold-63" x="666.05011"/>
     <use xlink:href="#Lato-Bold-61" x="713.750122"/>
     <use xlink:href="#Lato-Bold-20" x="766.100128"/>
     <use xlink:href="#Lato-Bold-72" x="785.400131"/>
     <use xlink:href="#Lato-Bold-65" x="826.250137"/>
     <use xlink:href="#Lato-Bold-67" x="879.70015"/>
     <use xlink:href="#Lato-Bold-69" x="931.45015"/>
     <use xlink:href="#Lato-Bold-6f" x="958.550156"/>
     <use xlink:href="#Lato-Bold-6e" x="1015.400162"/>
     <use xlink:href="#Lato-Bold-20" x="1072.250168"/>
     <use xlink:href="#Lato-Bold-7c" x="1091.550171"/>
     <use xlink:href="#Lato-Bold-20" x="1121.550171"/>
     <use xlink:href="#Lato-Bold-32" x="1140.850174"/>
     <use xlink:href="#Lato-Bold-30" x="1198.850174"/>
     <use xlink:href="#Lato-Bold-31" x="1256.850174"/>
     <use xlink:href="#Lato-Bold-38" x="1314.850174"/>
     <use xlink:href="#Lato-Bold-2d" x="1372.850174"/>
     <use xlink:href="#Lato-Bold-32" x="1408.750183"/>
     <use xlink:href="#Lato-Bold-30" x="1466.750183"/>
     <use xlink:href="#Lato-Bold-32" x="1524.750183"/>
     <use xlink:href="#Lato-Bold-31" x="1582.750183"/>
    </g>
   </g>
   <g id="legend_1">
    <g id="patch_16">
     <path d="M 46.724375 51.769525 
L 61.724375 51.769525 
L 61.724375 44.769525 
L 46.724375 44.769525 
z
" style="fill: #18375f; stroke: #ffffff; stroke-linejoin: miter"/>
    </g>
    <g id="text_15">
     <!-- East and Horn of Africa and Great Lakes -->
     <g style="fill: #333333" transform="translate(66.724375 51.769525)scale(0.1 -0.1)">
      <defs>
       <path id="Lato-Regular-45" d="M 3382 4586 
L 3382 4080 
L 1181 4080 
L 1181 2557 
L 2963 2557 
L 2963 2070 
L 1181 2070 
L 1181 506 
L 3382 506 
L 3382 0 
L 557 0 
L 557 4586 
L 3382 4586 
z
" transform="scale(0.015625)"/>
       <path id="Lato-Regular-47" d="M 2602 451 
Q 2787 451 2942 468 
Q 3098 486 3235 521 
Q 3373 557 3494 606 
Q 3616 656 3738 720 
L 3738 1731 
L 3027 1731 
Q 2966 1731 2929 1766 
Q 2893 1802 2893 1853 
L 2893 2205 
L 4301 2205 
L 4301 445 
Q 4128 320 3941 227 
Q 3754 134 3541 72 
Q 3328 10 3085 -20 
Q 2842 -51 2557 -51 
Q 2058 -51 1642 120 
Q 1226 291 925 600 
Q 624 909 456 1341 
Q 288 1773 288 2291 
Q 288 2816 453 3248 
Q 618 3680 923 3989 
Q 1229 4298 1662 4467 
Q 2096 4637 2634 4637 
Q 2906 4637 3139 4597 
Q 3373 4557 3573 4481 
Q 3773 4406 3942 4299 
Q 4112 4192 4259 4058 
L 4083 3776 
Q 4029 3690 3942 3690 
Q 3891 3690 3830 3725 
Q 3750 3770 3651 3834 
Q 3552 3898 3409 3957 
Q 3267 4016 3073 4057 
Q 2880 4099 2614 4099 
Q 2227 4099 1913 3972 
Q 1600 3846 1379 3611 
Q 1158 3376 1040 3041 
Q 922 2707 922 2291 
Q 922 1856 1045 1515 
Q 1168 1174 1392 937 
Q 1616 701 1923 576 
Q 2230 451 2602 451 
z
" transform="scale(0.015625)"/>
       <path id="Lato-Regular-4c" d="M 1178 522 
L 3162 522 
L 3162 0 
L 557 0 
L 557 4586 
L 1178 4586 
L 1178 522 
z
" transform="scale(0.015625)"/>
       <path id="Lato-Regular-6b" d="M 1059 4714 
L 1059 1939 
L 1206 1939 
Q 1270 1939 1312 1956 
Q 1354 1974 1405 2029 
L 2429 3126 
Q 2477 3178 2525 3210 
Q 2573 3242 2653 3242 
L 3171 3242 
L 1978 1971 
Q 1933 1917 1889 1875 
Q 1846 1834 1792 1802 
Q 1850 1763 1896 1713 
Q 1942 1664 1984 1600 
L 3251 0 
L 2739 0 
Q 2669 0 2619 27 
Q 2570 54 2525 112 
L 1459 1440 
Q 1411 1507 1363 1528 
Q 1315 1549 1219 1549 
L 1059 1549 
L 1059 0 
L 486 0 
L 486 4714 
L 1059 4714 
z
" transform="scale(0.015625)"/>
      </defs>
      <use xlink:href="#Lato-Regular-45"/>
      <use xlink:href="#Lato-Regular-61" x="58.100006"/>
      <use xlink:href="#Lato-Regular-73" x="108.800018"/>
      <use xlink:href="#Lato-Regular-74" x="152.200027"/>
      <use xlink:href="#Lato-Regular-20" x="189.500031"/>
      <use xlink:href="#Lato-Regular-61" x="208.800034"/>
      <use xlink:href="#Lato-Regular-6e" x="259.500046"/>
      <use xlink:href="#Lato-Regular-64" x="315.100052"/>
      <use xlink:href="#Lato-Regular-20" x="371.000061"/>
      <use xlink:href="#Lato-Regular-48" x="390.300064"/>
      <use xlink:href="#Lato-Regular-6f" x="465.90007"/>
      <use xlink:href="#Lato-Regular-72" x="521.500076"/>
      <use xlink:href="#Lato-Regular-6e" x="561.800079"/>
      <use xlink:href="#Lato-Regular-20" x="617.400085"/>
      <use xlink:href="#Lato-Regular-6f" x="636.700089"/>
      <use xlink:href="#Lato-Regular-66" x="692.300095"/>
      <use xlink:href="#Lato-Regular-20" x="726.000092"/>
      <use xlink:href="#Lato-Regular-41" x="745.300095"/>
      <use xlink:href="#Lato-Regular-66" x="813.30011"/>
      <use xlink:href="#Lato-Regular-72" x="847.000107"/>
      <use xlink:href="#Lato-Regular-69" x="887.30011"/>
      <use xlink:href="#Lato-Regular-63" x="912.900116"/>
      <use xlink:href="#Lato-Regular-61" x="959.600113"/>
      <use xlink:href="#Lato-Regular-20" x="1010.300125"/>
      <use xlink:href="#Lato-Regular-61" x="1029.600128"/>
      <use xlink:href="#Lato-Regular-6e" x="1080.30014"/>
      <use xlink:href="#Lato-Regular-64" x="1135.900146"/>
      <use xlink:href="#Lato-Regular-20" x="1191.800156"/>
      <use xlink:href="#Lato-Regular-47" x="1211.100159"/>
      <use xlink:href="#Lato-Regular-72" x="1284.500168"/>
      <use xlink:href="#Lato-Regular-65" x="1324.800171"/>
      <use xlink:href="#Lato-Regular-61" x="1377.20018"/>
      <use xlink:href="#Lato-Regular-74" x="1427.900192"/>
      <use xlink:href="#Lato-Regular-20" x="1465.200195"/>
      <use xlink:href="#Lato-Regular-4c" x="1484.500198"/>
      <use xlink:href="#Lato-Regular-61" x="1535.900208"/>
      <use xlink:href="#Lato-Regular-6b" x="1586.60022"/>
      <use xlink:href="#Lato-Regular-65" x="1639.000229"/>
      <use xlink:href="#Lato-Regular-73" x="1691.400238"/>
     </g>
    </g>
    <g id="patch_17">
     <path d="M 46.724375 65.850775 
L 61.724375 65.850775 
L 61.724375 58.850775 
L 46.724375 58.850775 
z
" style="fill: #0072bc; stroke: #ffffff; stroke-linejoin: miter"/>
    </g>
    <g id="text_16">
     <!-- Southern Africa -->
     <g style="fill: #333333" transform="translate(66.724375 65.850775)scale(0.1 -0.1)">
      <use xlink:href="#Lato-Regular-53"/>
      <use xlink:href="#Lato-Regular-6f" x="53"/>
      <use xlink:href="#Lato-Regular-75" x="108.600006"/>
      <use xlink:href="#Lato-Regular-74" x="164.200012"/>
      <use xlink:href="#Lato-Regular-68" x="201.500015"/>
      <use xlink:href="#Lato-Regular-65" x="257.100021"/>
      <use xlink:href="#Lato-Regular-72" x="309.500031"/>
      <use xlink:href="#Lato-Regular-6e" x="349.800034"/>
      <use xlink:href="#Lato-Regular-20" x="405.40004"/>
      <use xlink:href="#Lato-Regular-41" x="424.700043"/>
      <use xlink:href="#Lato-Regular-66" x="492.700058"/>
      <use xlink:href="#Lato-Regular-72" x="526.400055"/>
      <use xlink:href="#Lato-Regular-69" x="566.700058"/>
      <use xlink:href="#Lato-Regular-63" x="592.300064"/>
      <use xlink:href="#Lato-Regular-61" x="639.000061"/>
     </g>
    </g>
    <g id="patch_18">
     <path d="M 260.204063 51.769525 
L 275.204063 51.769525 
L 275.204063 44.769525 
L 260.204063 44.769525 
z
" style="fill: #8ebeff; stroke: #ffffff; stroke-linejoin: miter"/>
    </g>
    <g id="text_17">
     <!-- West and Central Africa -->
     <g style="fill: #333333" transform="translate(280.204063 51.769525)scale(0.1 -0.1)">
      <defs>
       <path id="Lato-Regular-57" d="M 45 4586 
L 560 4586 
Q 643 4586 697 4544 
Q 752 4502 771 4438 
L 1718 1251 
Q 1744 1165 1765 1065 
Q 1786 966 1805 858 
Q 1827 966 1849 1067 
Q 1872 1168 1901 1251 
L 2979 4438 
Q 2998 4493 3054 4539 
Q 3110 4586 3190 4586 
L 3370 4586 
Q 3453 4586 3505 4544 
Q 3558 4502 3581 4438 
L 4653 1251 
Q 4710 1085 4755 870 
Q 4774 976 4790 1072 
Q 4806 1168 4832 1251 
L 5782 4438 
Q 5798 4496 5854 4541 
Q 5910 4586 5990 4586 
L 6474 4586 
L 5043 0 
L 4486 0 
L 3325 3498 
Q 3290 3597 3261 3728 
Q 3245 3664 3230 3605 
Q 3216 3546 3200 3498 
L 2032 0 
L 1475 0 
L 45 4586 
z
" transform="scale(0.015625)"/>
      </defs>
      <use xlink:href="#Lato-Regular-57"/>
      <use xlink:href="#Lato-Regular-65" x="101.900024"/>
      <use xlink:href="#Lato-Regular-73" x="154.300034"/>
      <use xlink:href="#Lato-Regular-74" x="197.700043"/>
      <use xlink:href="#Lato-Regular-20" x="235.000046"/>
      <use xlink:href="#Lato-Regular-61" x="254.300049"/>
      <use xlink:href="#Lato-Regular-6e" x="305.000061"/>
      <use xlink:href="#Lato-Regular-64" x="360.600067"/>
      <use xlink:href="#Lato-Regular-20" x="416.500076"/>
      <use xlink:href="#Lato-Regular-43" x="435.800079"/>
      <use xlink:href="#Lato-Regular-65" x="504.300095"/>
      <use xlink:href="#Lato-Regular-6e" x="556.700104"/>
      <use xlink:href="#Lato-Regular-74" x="612.30011"/>
      <use xlink:href="#Lato-Regular-72" x="649.600113"/>
      <use xlink:href="#Lato-Regular-61" x="689.900116"/>
      <use xlink:href="#Lato-Regular-6c" x="740.600128"/>
      <use xlink:href="#Lato-Regular-20" x="766.200134"/>
      <use xlink:href="#Lato-Regular-41" x="785.500137"/>
      <use xlink:href="#Lato-Regular-66" x="853.500153"/>
      <use xlink:href="#Lato-Regular-72" x="887.20015"/>
      <use xlink:href="#Lato-Regular-69" x="927.500153"/>
      <use xlink:href="#Lato-Regular-63" x="953.100159"/>
      <use xlink:href="#Lato-Regular-61" x="999.800156"/>
     </g>
    </g>
   </g>
  </g>
 </g>
 <defs>
  <clipPath id="pd13878a474">
   <rect x="46.724375" y="61.6" width="446.475625" height="298.32"/>
  </clipPath>
 </defs>
</svg>
